<?xml version="1.0" encoding="utf-8"?>
<!-- Generator: Adobe Illustrator 16.0.0, SVG Export Plug-In . SVG Version: 6.00 Build 0)  -->
<!DOCTYPE svg PUBLIC "-//W3C//DTD SVG 1.1//EN" "http://www.w3.org/Graphics/SVG/1.1/DTD/svg11.dtd">
<svg version="1.1" id="圖層_1" xmlns="http://www.w3.org/2000/svg" xmlns:xlink="http://www.w3.org/1999/xlink" x="0px" y="0px"
	 width="900px" height="1000px" viewBox="0 0 900 1000" enable-background="new 0 0 900 1000" xml:space="preserve">
<g>
	<path fill="#4D4D4D" d="M653,236c-130,0-260,0-390,0c-46,0-70,24-70,71c0,64,0,129,0,194c0,64,0,130,0,195c0,45,25,69,68,69
		c131,0,261,0,392,0c45,0,70-25,70-70c0-130,0-259,0-389C723,260,698,236,653,236z M610,295c53,0,53,0,53,53
		c0,50.997,0,50.997-52,50.997s-52,0-52-52C559,295,559,295,610,295z M458,397c55,0,103,48,102,103c0,56-47,103-104,102
		c-56-1-103-48-101-104C356,443,403,397,458,397z M663,673c0,25-7,32-32,32c-58,0-116,0-173,0s-115,0-173,0c-24,0-31-7-31-32
		c0-63,0-128-1-193c0-18,5-22,22-22c24,2,25,1,22,24c-9,82,47,161,128,177c83,16,166-34,189-113c7-25,9-51,4-76c-2-9,0-11,9-11
		c37-3,37-3,37,34C663,553,663,613,663,673z"/>
</g>
</svg>
