<?xml version="1.0" encoding="utf-8"?>
<!-- Generator: Adobe Illustrator 16.0.0, SVG Export Plug-In . SVG Version: 6.00 Build 0)  -->
<!DOCTYPE svg PUBLIC "-//W3C//DTD SVG 1.1//EN" "http://www.w3.org/Graphics/SVG/1.1/DTD/svg11.dtd">
<svg version="1.1" id="圖層_1" xmlns="http://www.w3.org/2000/svg" xmlns:xlink="http://www.w3.org/1999/xlink" x="0px" y="0px"
	 width="900px" height="1000px" viewBox="0 0 900 1000" enable-background="new 0 0 900 1000" xml:space="preserve">
<g>
	<path fill="#4D4D4D" d="M521,290c7-8,20-14,40-14c18,0,40,2,60,8l17-93c-35-12-72-16-109-16c-38,0-67,6-91,19c-24,14-40,29-49,50
		c-9,19-14,52-14,92.996v36h-73v106h73V812c31,6.996,63,10,96,10c12,0,25,0,38-2V481h97V375h-97v-34C508,315,512,299,521,290z"/>
</g>
</svg>
